<svg width="48" height="48" viewBox="0 0 48 48" fill="none" xmlns="http://www.w3.org/2000/svg">
<g clip-path="url(#clip0_124_80)">
<path d="M41 6C40.89 6 40.79 6.01 40.69 6.05L30 10.2L18 6L6.73 9.8C6.31 9.94 6 10.3 6 10.76V41C6 41.55 6.45 42 7 42C7.11 42 7.21 41.99 7.31 41.95L18 37.8L30 42L41.28 38.21C41.7 38.06 42 37.7 42 37.24V7C42 6.45 41.55 6 41 6ZM30 38L18 33.79V10L30 14.21V38Z" fill="#fff"/>
</g>
<defs>
<clipPath id="clip0_124_80">
<rect width="48" height="48" fill="#fff"/>
</clipPath>
</defs>
</svg>
